<?xml version="1.0" encoding="UTF-8" ?>
<!DOCTYPE svg PUBLIC "-//W3C//DTD SVG 1.1//EN" "http://www.w3.org/Graphics/SVG/1.1/DTD/svg11.dtd">
<svg width="236pt" height="59pt" viewBox="0 0 236 59" version="1.1" xmlns="http://www.w3.org/2000/svg">
<g id="#ffffffff">
<path fill="#ffffff" opacity="1.00" d=" M 43.10 19.95 C 42.81 15.04 46.97 10.30 51.92 10.15 C 58.65 10.06 65.39 10.08 72.13 10.14 C 77.19 10.18 81.49 15.04 81.23 20.04 C 81.23 26.38 81.23 32.73 81.23 39.07 C 81.47 44.49 76.42 49.48 70.95 48.91 C 67.08 48.74 61.47 50.14 59.64 45.51 C 58.93 42.10 59.34 38.50 59.37 35.03 C 60.21 32.10 63.67 32.41 66.08 32.53 C 67.97 32.08 68.80 33.81 69.75 35.04 C 68.72 37.66 62.79 37.34 64.88 40.92 C 68.73 44.49 75.72 40.07 75.18 35.02 C 74.75 30.60 76.49 25.37 73.46 21.61 C 70.86 18.47 66.51 19.50 62.96 19.34 C 60.64 19.21 58.03 19.48 56.47 21.43 C 51.88 26.09 57.51 34.14 52.34 38.44 C 49.26 41.21 43.86 39.13 43.20 35.12 C 42.95 30.07 43.16 25.01 43.10 19.95 Z" />
<path fill="#ffffff" opacity="1.00" d=" M 96.39 13.41 C 99.44 10.29 104.39 11.12 107.92 12.89 C 107.43 14.45 106.96 16.02 106.48 17.58 C 104.86 17.14 102.79 15.94 101.28 17.28 C 99.67 18.48 99.73 20.76 99.65 22.56 C 101.46 23.50 103.54 22.77 105.46 22.74 C 105.91 23.39 106.35 24.04 106.80 24.69 C 109.50 21.55 114.21 21.05 118.13 21.25 C 122.28 21.36 126.51 24.09 127.35 28.34 C 127.88 32.23 127.52 36.17 127.58 40.09 C 127.99 40.48 128.81 41.26 129.23 41.65 C 129.18 43.31 129.17 44.98 129.17 46.65 C 126.18 47.38 122.08 46.64 122.32 42.72 C 119.97 45.40 116.60 47.28 112.93 46.93 C 107.46 47.27 102.86 40.65 105.77 35.78 C 108.91 30.39 116.31 30.40 121.59 32.13 C 121.39 30.19 121.43 27.82 119.58 26.61 C 115.91 24.20 111.45 26.35 108.16 28.41 C 107.81 26.93 107.12 25.60 105.56 25.19 L 106.14 27.62 C 104.01 27.76 101.89 27.77 99.76 27.78 C 99.84 34.02 99.66 40.27 99.88 46.51 C 97.76 46.53 95.63 46.54 93.51 46.55 C 93.61 40.28 93.50 34.02 93.59 27.75 C 92.77 27.77 91.14 27.80 90.32 27.81 C 90.32 26.16 90.34 24.50 90.38 22.85 C 91.17 22.86 92.75 22.89 93.53 22.90 C 93.46 19.56 93.79 15.84 96.39 13.41 M 111.50 40.56 C 114.78 44.87 123.10 41.02 121.52 35.57 C 118.81 34.87 115.75 33.90 113.10 35.38 C 111.22 36.19 109.89 38.84 111.50 40.56 Z" />
<path fill="#ffffff" opacity="1.00" d=" M 158.23 13.48 C 160.33 13.49 162.44 13.50 164.54 13.50 C 164.50 16.20 164.49 18.90 164.43 21.60 C 166.17 21.60 167.91 21.58 169.65 21.57 C 169.64 23.23 169.64 24.89 169.64 26.55 C 167.90 26.54 166.17 26.53 164.44 26.52 C 164.53 31.09 164.49 35.65 164.48 40.22 C 166.30 41.53 168.31 41.08 170.25 40.30 C 170.68 41.98 171.13 43.66 171.59 45.34 C 168.60 46.50 165.32 47.41 162.12 46.64 C 159.73 45.99 158.04 43.53 158.26 41.08 C 158.22 36.24 158.24 31.40 158.30 26.57 C 157.19 26.54 156.07 26.51 154.96 26.47 C 154.95 24.84 154.97 23.20 155.02 21.56 C 155.84 21.58 157.48 21.60 158.30 21.62 C 158.26 18.90 158.23 16.19 158.23 13.48 Z" />
<path fill="#ffffff" opacity="1.00" d=" M 131.17 21.58 C 133.07 21.58 134.96 21.58 136.85 21.57 C 136.78 23.12 136.70 24.67 136.61 26.22 C 139.07 22.99 142.94 20.80 147.09 21.19 C 150.75 21.08 153.49 24.44 153.70 27.90 C 154.20 34.08 153.59 40.30 154.06 46.49 C 151.90 46.53 149.74 46.54 147.58 46.54 C 147.62 41.35 147.74 36.15 147.57 30.96 C 147.63 28.89 146.10 27.01 144.05 26.66 C 141.10 26.96 138.02 29.11 137.49 32.13 C 137.39 36.94 137.47 41.74 137.52 46.54 C 135.38 46.54 133.24 46.53 131.10 46.50 C 131.31 38.20 131.18 29.89 131.17 21.58 Z" />
<path fill="#ffffff" opacity="1.00" d=" M 175.55 23.50 C 181.09 19.52 189.79 20.67 193.69 26.40 C 195.85 29.18 196.02 32.82 195.93 36.19 C 189.48 36.22 183.04 36.13 176.60 36.24 C 177.37 38.56 178.58 41.01 181.03 41.94 C 184.16 43.33 187.60 41.59 189.53 39.04 C 191.34 39.55 193.13 40.10 194.92 40.71 C 190.72 47.60 180.23 49.20 174.30 43.70 C 168.44 38.49 169.05 27.94 175.55 23.50 M 176.40 31.68 C 180.82 32.56 185.31 31.49 189.76 32.09 C 189.41 28.04 185.14 24.47 181.12 26.13 C 178.55 26.86 177.39 29.45 176.40 31.68 Z" />
</g>
</svg>
