<?xml version="1.0" encoding="UTF-8" standalone="no"?>
<svg
   xmlns:dc="http://purl.org/dc/elements/1.1/"
   xmlns:cc="http://creativecommons.org/ns#"
   xmlns:rdf="http://www.w3.org/1999/02/22-rdf-syntax-ns#"
   xmlns:svg="http://www.w3.org/2000/svg"
   xmlns="http://www.w3.org/2000/svg"
   xmlns:sodipodi="http://sodipodi.sourceforge.net/DTD/sodipodi-0.dtd"
   xmlns:inkscape="http://www.inkscape.org/namespaces/inkscape"
   version="1.1"
   x="0px"
   y="0px"
   viewBox="0 0 472.05786 345.22617"
   enable-background="new 0 0 900 900"
   xml:space="preserve"
   id="svg2"
   inkscape:version="0.91 r13725"
   sodipodi:docname="arduino3.svg"
   width="472.05786"
   height="345.22617"><metadata
     id="metadata14"><rdf:RDF><cc:Work
         rdf:about=""><dc:format>image/svg+xml</dc:format><dc:type
           rdf:resource="http://purl.org/dc/dcmitype/StillImage" /><dc:title></dc:title></cc:Work></rdf:RDF></metadata><defs
     id="defs12" /><sodipodi:namedview
     pagecolor="#ffffff"
     bordercolor="#666666"
     borderopacity="1"
     objecttolerance="10"
     gridtolerance="10"
     guidetolerance="10"
     inkscape:pageopacity="0"
     inkscape:pageshadow="2"
     inkscape:window-width="1504"
     inkscape:window-height="793"
     id="namedview10"
     showgrid="false"
     fit-margin-top="60"
     fit-margin-left="0"
     fit-margin-right="0"
     fit-margin-bottom="60"
     inkscape:zoom="0.41955556"
     inkscape:cx="-6.4843602"
     inkscape:cy="1.4941709"
     inkscape:window-x="1984"
     inkscape:window-y="116"
     inkscape:window-maximized="0"
     inkscape:current-layer="svg2" /><g
     id="g3416"
     style="fill:#ffffff"
     transform="matrix(7.5513901,0,0,7.5513901,-186.71132,-222.35996)"><path
       style="clip-rule:evenodd;fill:#ffffff;fill-rule:evenodd"
       inkscape:connector-curvature="0"
       id="path74"
       d="m 24.725424,52.420345 c 0,15.320016 21.131058,21.131057 31.520494,5.458856 10.741621,16.200477 30.992218,9.332884 30.992218,-5.458856 0,-14.791741 -20.074505,-22.011519 -30.992218,-5.458857 -10.213344,-16.37657 -31.520494,-9.86116 -31.520494,5.458857 l 0,0 z m 5.634948,0 c 0,-11.093806 15.672202,-14.615649 22.89198,0 -7.39587,13.911279 -22.89198,11.093805 -22.89198,0 l 0,0 z m 29.055205,0 c 6.515409,-14.791741 22.715887,-10.741622 22.539795,0 0,10.74162 -16.200478,14.087371 -22.539795,0 z" /><rect
       style="clip-rule:evenodd;fill:#ffffff;fill-rule:evenodd"
       id="rect76"
       height="2.9935665"
       width="9.3328848"
       y="50.835518"
       x="36.171417" /><polygon
       style="clip-rule:evenodd;fill:#ffffff;fill-rule:evenodd"
       transform="matrix(1.7609215,0,0,1.7609215,-37.259011,-14.670764)"
       id="polygon78"
       points="60.9,40.6 60.9,38.9 59.1,38.9 59.1,37.1 60.9,37.1 60.9,35.3 62.7,35.3 62.7,37.1 64.4,37.1 64.4,38.9 62.7,38.9 62.7,40.6 " /></g></svg>