<?xml version="1.0" encoding="UTF-8" standalone="no"?>
<svg
   xmlns:dc="http://purl.org/dc/elements/1.1/"
   xmlns:cc="http://creativecommons.org/ns#"
   xmlns:rdf="http://www.w3.org/1999/02/22-rdf-syntax-ns#"
   xmlns:svg="http://www.w3.org/2000/svg"
   xmlns="http://www.w3.org/2000/svg"
   xmlns:sodipodi="http://sodipodi.sourceforge.net/DTD/sodipodi-0.dtd"
   xmlns:inkscape="http://www.inkscape.org/namespaces/inkscape"
   version="1.1"
   x="0px"
   y="0px"
   viewBox="0 0 20 20"
   enable-background="new 0 0 24 24"
   xml:space="preserve"
   id="svg2"
   inkscape:version="0.91 r13725"
   sodipodi:docname="eletronico.svg"
   width="20"
   height="20"><metadata
     id="metadata14"><rdf:RDF><cc:Work
         rdf:about=""><dc:format>image/svg+xml</dc:format><dc:type
           rdf:resource="http://purl.org/dc/dcmitype/StillImage" /><dc:title></dc:title></cc:Work></rdf:RDF></metadata><defs
     id="defs12" /><sodipodi:namedview
     pagecolor="#ffffff"
     bordercolor="#666666"
     borderopacity="1"
     objecttolerance="10"
     gridtolerance="10"
     guidetolerance="10"
     inkscape:pageopacity="0"
     inkscape:pageshadow="2"
     inkscape:window-width="672"
     inkscape:window-height="480"
     id="namedview10"
     showgrid="false"
     fit-margin-top="0"
     fit-margin-left="0"
     fit-margin-right="0"
     fit-margin-bottom="0"
     inkscape:zoom="5.5625733"
     inkscape:cx="18.465583"
     inkscape:cy="14.624927"
     inkscape:window-x="55"
     inkscape:window-y="34"
     inkscape:window-maximized="0"
     inkscape:current-layer="svg2" /><path
     d="M 20,5 18,5 18,3 17,3 17,0 15,0 15,3 14,3 14,5 12,5 12,3 11,3 11,0 9,0 9,3 8,3 8,5 6,5 6,3 5,3 5,0 3,0 3,3 2,3 2,5 0,5 l 0,10 2,0 0,2 1,0 0,3 2,0 0,-3 1,0 0,-2 2,0 0,2 1,0 0,3 2,0 0,-3 1,0 0,-2 2,0 0,2 1,0 0,3 2,0 0,-3 1,0 0,-2 2,0 0,-10 z m -2,8 -16,0 0,-6 16,0 0,6 z"
     id="path4"
     inkscape:connector-curvature="0"
     style="fill:#ffffff" /></svg>