<?xml version="1.0" encoding="utf-8"?>
<!-- Generator: Adobe Illustrator 23.0.2, SVG Export Plug-In . SVG Version: 6.00 Build 0)  -->
<svg version="1.2" baseProfile="tiny" id="Layer_3" xmlns="http://www.w3.org/2000/svg" xmlns:xlink="http://www.w3.org/1999/xlink"
	 x="0px" y="0px" width="24.08px" height="24.08px" viewBox="0 0 24.08 24.08" xml:space="preserve">
<g>
	<path fill="#FFFFFF" d="M17.17,4.66H6.91c-1.24,0-2.25,1.01-2.25,2.25v10.25c0,1.24,1.01,2.25,2.25,2.25h10.25
		c1.24,0,2.25-1.01,2.25-2.25V6.91C19.41,5.67,18.41,4.66,17.17,4.66z M16.85,15.76c0,0.6-0.49,1.09-1.09,1.09H8.32
		c-0.6,0-1.09-0.49-1.09-1.09V8.32c0-0.6,0.49-1.09,1.09-1.09h7.44c0.6,0,1.09,0.49,1.09,1.09V15.76z"/>
	<path fill="#FFFFFF" d="M17.17,4.66H6.91c-1.24,0-2.25,1.01-2.25,2.25v10.25c0,1.24,1.01,2.25,2.25,2.25h10.25
		c1.24,0,2.25-1.01,2.25-2.25V6.91C19.41,5.67,18.41,4.66,17.17,4.66z M16.85,15.76c0,0.6-0.49,1.09-1.09,1.09H8.32
		c-0.6,0-1.09-0.49-1.09-1.09V8.32c0-0.6,0.49-1.09,1.09-1.09h7.44c0.6,0,1.09,0.49,1.09,1.09V15.76z"/>
	<g>
		<path fill="#FFFFFF" d="M8.36,0.92v1.81H6.52V0.92C6.52,0.41,6.93,0,7.44,0c0.25,0,0.48,0.1,0.65,0.27
			C8.25,0.43,8.36,0.66,8.36,0.92z"/>
		<path fill="#FFFFFF" d="M12.95,0.92v1.81h-1.83V0.92c0-0.51,0.41-0.92,0.92-0.92c0.25,0,0.48,0.1,0.65,0.27
			C12.85,0.43,12.95,0.66,12.95,0.92z"/>
		<path fill="#FFFFFF" d="M17.55,0.92v1.81h-1.83V0.92c0-0.51,0.41-0.92,0.92-0.92c0.25,0,0.48,0.1,0.65,0.27
			C17.45,0.43,17.55,0.66,17.55,0.92z"/>
	</g>
	<g>
		<path fill="#FFFFFF" d="M17.55,21.35v1.81c0,0.51-0.41,0.92-0.92,0.92c-0.25,0-0.48-0.1-0.65-0.27c-0.17-0.17-0.27-0.4-0.27-0.65
			v-1.81H17.55z"/>
		<path fill="#FFFFFF" d="M12.95,21.35v1.81c0,0.51-0.41,0.92-0.92,0.92c-0.25,0-0.48-0.1-0.65-0.27c-0.17-0.17-0.27-0.4-0.27-0.65
			v-1.81H12.95z"/>
		<path fill="#FFFFFF" d="M8.36,21.35v1.81c0,0.51-0.41,0.92-0.92,0.92c-0.25,0-0.48-0.1-0.65-0.27c-0.17-0.17-0.27-0.4-0.27-0.65
			v-1.81H8.36z"/>
	</g>
	<g>
		<path fill="#FFFFFF" d="M24.08,7.44c0,0.25-0.1,0.48-0.27,0.65c-0.17,0.17-0.4,0.27-0.65,0.27h-1.81V6.52h1.81
			C23.67,6.52,24.08,6.93,24.08,7.44z"/>
		<path fill="#FFFFFF" d="M24.08,12.04c0,0.25-0.1,0.48-0.27,0.65c-0.17,0.17-0.4,0.27-0.65,0.27h-1.81v-1.83h1.81
			C23.67,11.12,24.08,11.53,24.08,12.04z"/>
		<path fill="#FFFFFF" d="M24.08,16.64c0,0.25-0.1,0.48-0.27,0.65c-0.17,0.17-0.4,0.27-0.65,0.27h-1.81v-1.83h1.81
			C23.67,15.72,24.08,16.13,24.08,16.64z"/>
	</g>
	<g>
		<path fill="#FFFFFF" d="M2.73,15.72v1.83H0.92C0.41,17.55,0,17.14,0,16.64c0-0.25,0.1-0.48,0.27-0.65
			c0.17-0.17,0.39-0.27,0.65-0.27H2.73z"/>
		<path fill="#FFFFFF" d="M2.73,11.12v1.83H0.92C0.41,12.95,0,12.54,0,12.04c0-0.25,0.1-0.48,0.27-0.65
			c0.17-0.17,0.39-0.27,0.65-0.27H2.73z"/>
		<path fill="#FFFFFF" d="M2.73,6.52v1.83H0.92C0.41,8.36,0,7.95,0,7.44c0-0.25,0.1-0.48,0.27-0.65c0.17-0.17,0.39-0.27,0.65-0.27
			H2.73z"/>
	</g>
	<path fill="#FFFFFF" d="M15.04,9.72v4.64c0,0.38-0.31,0.68-0.68,0.68H9.72c-0.38,0-0.68-0.31-0.68-0.68V9.72
		c0-0.38,0.31-0.68,0.68-0.68h4.64C14.74,9.04,15.04,9.34,15.04,9.72z"/>
</g>
</svg>
