<?xml version="1.0" encoding="UTF-8" standalone="no"?>
<svg
   xmlns:dc="http://purl.org/dc/elements/1.1/"
   xmlns:cc="http://creativecommons.org/ns#"
   xmlns:rdf="http://www.w3.org/1999/02/22-rdf-syntax-ns#"
   xmlns:svg="http://www.w3.org/2000/svg"
   xmlns="http://www.w3.org/2000/svg"
   xmlns:sodipodi="http://sodipodi.sourceforge.net/DTD/sodipodi-0.dtd"
   xmlns:inkscape="http://www.inkscape.org/namespaces/inkscape"
   version="1.1"
   x="0px"
   y="0px"
   viewBox="0 0 96 97"
   enable-background="new 0 0 110 110"
   xml:space="preserve"
   id="svg2"
   inkscape:version="0.91 r13725"
   sodipodi:docname="iot.svg"
   width="96"
   height="97"><metadata
     id="metadata14"><rdf:RDF><cc:Work
         rdf:about=""><dc:format>image/svg+xml</dc:format><dc:type
           rdf:resource="http://purl.org/dc/dcmitype/StillImage" /><dc:title></dc:title></cc:Work></rdf:RDF></metadata><defs
     id="defs12" /><sodipodi:namedview
     pagecolor="#ffffff"
     bordercolor="#666666"
     borderopacity="1"
     objecttolerance="10"
     gridtolerance="10"
     guidetolerance="10"
     inkscape:pageopacity="0"
     inkscape:pageshadow="2"
     inkscape:window-width="672"
     inkscape:window-height="480"
     id="namedview10"
     showgrid="false"
     fit-margin-top="0"
     fit-margin-left="0"
     fit-margin-right="0"
     fit-margin-bottom="0"
     inkscape:zoom="0.85818182"
     inkscape:cx="88.661616"
     inkscape:cy="60.915862"
     inkscape:window-x="2668"
     inkscape:window-y="269"
     inkscape:window-maximized="0"
     inkscape:current-layer="svg2" /><g
     id="g4185"
     style="fill:#ffffff"><path
       inkscape:connector-curvature="0"
       style="fill:#ffffff"
       id="path4"
       d="m 85,54 c -3.71,0 -7,1.84 -8.99,4.67 L 60.51,51.54 C 60.83,50.41 61,49.23 61,48 61,43 58.18,38.67 54.05,36.49 L 59.72,19.91 C 60.14,19.97 60.57,20 61,20 66.53,20 71,15.52 71,10 71,4.48 66.53,0 61,0 55.48,0 51,4.48 51,10 c 0,3.67 1.98,6.89 4.94,8.62 L 50.27,35.2 C 49.53,35.07 48.77,35 48,35 c -3.94,0 -7.47,1.75 -9.85,4.52 L 18.64,27.39 C 18.87,26.64 19,25.83 19,25 c 0,-4.42 -3.58,-8 -8,-8 -4.42,0 -8,3.58 -8,8 0,4.42 3.58,8 8,8 2.14,0 4.08,-0.84 5.52,-2.21 L 36.03,42.92 C 35.37,44.48 35,46.2 35,48 c 0,2.14 0.52,4.17 1.44,5.95 L 18.55,67.01 C 16.58,65.14 13.92,64 11,64 4.93,64 0,68.92 0,75 c 0,6.08 4.93,11 11,11 6.08,0 11,-4.92 11,-11 0,-1.71 -0.39,-3.32 -1.08,-4.76 L 38.81,57.19 c 2.25,2.25 5.33,3.689 8.75,3.8 l 2.51,20.569 C 47.1,82.72 45,85.61 45,89 c 0,4.42 3.58,8 8,8 4.42,0 8,-3.58 8,-8 0,-4.06 -3.03,-7.42 -6.95,-7.93 L 51.54,60.5 c 3.03,-0.84 5.61,-2.77 7.3,-5.33 l 15.5,7.13 C 74.12,63.16 74,64.07 74,65 74,71.08 78.93,76 85,76 91.08,76 96,71.08 96,65 96,58.92 91.08,54 85,54 Z M 55,10 c 0,-3.31 2.69,-6 6,-6 3.31,0 6,2.69 6,6 0,3.29 -2.66,5.97 -5.94,6 L 61,16 C 59.59,16 58.3,15.52 57.28,14.7 55.89,13.61 55,11.91 55,10 Z M 14.99,25.12 C 14.95,26.6 14.11,27.87 12.88,28.53 12.32,28.83 11.68,29 11,29 8.79,29 7,27.21 7,25 c 0,-2.21 1.79,-4 4,-4 2.21,0 4,1.79 4,4 0,0.04 0,0.08 -0.01,0.12 z M 11,82 c -3.86,0 -7,-3.14 -7,-7 0,-3.86 3.14,-7 7,-7 1.59,0 3.05,0.53 4.23,1.43 1.08,0.811 1.91,1.94 2.37,3.24 0.26,0.73 0.4,1.51 0.4,2.33 0,3.86 -3.14,7 -7,7 z m 42,3 c 0.56,0 1.09,0.12 1.57,0.33 C 56,85.93 57,87.35 57,89 c 0,2.21 -1.79,4 -4,4 -2.21,0 -4,-1.79 -4,-4 0,-1.3 0.62,-2.46 1.59,-3.19 C 51.26,85.3 52.1,85 53,85 Z m 3.81,-35.16 c -0.279,1.34 -0.859,2.58 -1.67,3.63 -1.04,1.36 -2.46,2.41 -4.09,2.99 C 50.1,56.81 49.07,57 48,57 47.69,57 47.38,56.98 47.07,56.95 45.18,56.76 43.46,55.97 42.1,54.79 41.09,53.91 40.27,52.8 39.73,51.55 39.26,50.46 39,49.26 39,48 c 0,-1.03 0.17,-2.01 0.5,-2.93 0.44,-1.29 1.17,-2.45 2.11,-3.4 C 43.24,40.02 45.5,39 48,39 c 0.32,0 0.64,0.02 0.95,0.05 1.38,0.14 2.66,0.6 3.78,1.3 2.56,1.59 4.27,4.42 4.27,7.65 0,0.63 -0.07,1.25 -0.19,1.84 z M 85,72 c -3.86,0 -7,-3.14 -7,-7 0,-0.33 0.02,-0.66 0.08,-0.98 0.18,-1.38 0.78,-2.64 1.67,-3.64 C 81.03,58.92 82.91,58 85,58 c 3.86,0 7,3.14 7,7 0,3.86 -3.14,7 -7,7 z" /><ellipse
       ry="10.810911"
       rx="10.810912"
       cy="47.217693"
       cx="48.099049"
       id="path4142"
       style="fill:#ffffff" /><ellipse
       ry="8.1330442"
       rx="8.1330452"
       cy="9.0423603"
       cx="61.17897"
       id="path4142-3"
       style="fill:#ffffff" /><ellipse
       ry="6.0667143"
       rx="6.0667148"
       cy="25.481543"
       cx="11.364412"
       id="path4142-6"
       style="fill:#ffffff" /><ellipse
       ry="8.6480179"
       rx="8.6480188"
       cy="75.06208"
       cx="11.226443"
       id="path4142-7"
       style="fill:#ffffff" /><ellipse
       ry="5.8585806"
       rx="5.8585811"
       cy="89.134537"
       cx="53.601696"
       id="path4142-5"
       style="fill:#ffffff" /><circle
       r="8.1890898"
       cy="65.538132"
       cx="85.937508"
       id="path4142-35"
       style="fill:#ffffff" /></g></svg>