<svg id="svg2" xmlns="http://www.w3.org/2000/svg" viewBox="0 0 472.06 265.23"><defs><style>.cls-1{fill:#fff;}</style></defs><path class="cls-1" d="M325.35,260.93h-180C74.28,260.93,16.44,203.1,16.44,132A129.07,129.07,0,0,1,145.37,3.08h180A129.07,129.07,0,0,1,454.28,132C454.28,203.1,396.44,260.93,325.35,260.93ZM142.44,49c-47.41,0-83,35.63-83,83a86.06,86.06,0,0,0,86,86h180a86.06,86.06,0,0,0,86-86c0-47.41-41.5-83-88.9-83Z"/><circle class="cls-1" cx="140.17" cy="132.01" r="26.79"/><circle class="cls-1" cx="327.68" cy="132.01" r="26.79"/></svg>