<?xml version="1.0" encoding="UTF-8" standalone="no"?>
<svg
   xmlns:dc="http://purl.org/dc/elements/1.1/"
   xmlns:cc="http://creativecommons.org/ns#"
   xmlns:rdf="http://www.w3.org/1999/02/22-rdf-syntax-ns#"
   xmlns:svg="http://www.w3.org/2000/svg"
   xmlns="http://www.w3.org/2000/svg"
   xmlns:sodipodi="http://sodipodi.sourceforge.net/DTD/sodipodi-0.dtd"
   xmlns:inkscape="http://www.inkscape.org/namespaces/inkscape"
   width="1773.6542"
   height="2358.1077"
   x="0px"
   y="0px"
   viewBox="0 0 232.01608 308.44048"
   xml:space="preserve"
   id="svg2"
   version="1.1"
   inkscape:version="0.91 r13725"
   sodipodi:docname="raspberry-pi.svg">
  <metadata
     id="metadata14">
    <rdf:RDF>
      <cc:Work
         rdf:about="">
        <dc:format>image/svg+xml</dc:format>
        <dc:type
           rdf:resource="http://purl.org/dc/dcmitype/StillImage" />
        <dc:title></dc:title>
      </cc:Work>
    </rdf:RDF>
  </metadata>
  <defs
     id="defs12" />
  <sodipodi:namedview
     pagecolor="#ffffff"
     bordercolor="#666666"
     borderopacity="1"
     objecttolerance="10"
     gridtolerance="10"
     guidetolerance="10"
     inkscape:pageopacity="0"
     inkscape:pageshadow="2"
     inkscape:window-width="1185"
     inkscape:window-height="810"
     id="namedview10"
     showgrid="false"
     fit-margin-top="0"
     fit-margin-left="0"
     fit-margin-right="0"
     fit-margin-bottom="0"
     inkscape:zoom="0.1888"
     inkscape:cx="923.0631"
     inkscape:cy="986.14771"
     inkscape:window-x="2194"
     inkscape:window-y="86"
     inkscape:window-maximized="0"
     inkscape:current-layer="svg2" />
  <path
     d="m 35.660539,22.048 c 31.036,16.001 49.079,28.945 58.964,39.969 -5.062,20.289 -31.47,21.215 -41.126,20.646 1.977,-0.92 3.627,-2.023 4.212,-3.716 -2.423,-1.722 -11.014,-0.182 -17.012,-3.551 2.304,-0.478 3.382,-0.943 4.459,-2.643 -5.666,-1.807 -11.77,-3.365 -15.36,-6.359 1.937,0.024 3.746,0.434 6.276,-1.321 -5.075,-2.735 -10.491,-4.903 -14.699,-9.084 2.624,-0.064 5.453,-0.026 6.276,-0.991 -4.645,-2.878 -8.565,-6.078 -11.809,-9.579 3.672,0.443 5.223,0.062 6.111,-0.578 -3.512,-3.597 -7.956,-6.634 -10.075,-11.066 2.726,0.94 5.221,1.3 7.019,-0.082 -1.193,-2.692 -6.305,-4.28 -9.2489996,-10.571 2.8709996,0.279 5.9149996,0.626 6.5239996,0 -1.332,-5.428 -3.618,-8.48 -5.86,-11.642 6.143,-0.091 15.451,0.024 15.03,-0.495 l -3.799,-3.881 c 6.001,-1.616 12.141,0.259 16.599,1.651 2.001,-1.579 -0.036,-3.576 -2.478,-5.615 5.1,0.681 9.708,1.853 13.874,3.468 2.225,-2.009 -1.445,-4.019 -3.221,-6.028 7.879,1.494 11.217,3.595 14.534,5.698 2.407,-2.307 0.138,-4.268 -1.486,-6.276 5.941,2.2 9.001,5.041 12.222,7.845 1.092,-1.474 2.775,-2.555 0.743,-6.111 4.218,2.431 7.395,5.296 9.745,8.506 2.61,-1.662 1.555,-3.934 1.569,-6.029 4.384,3.566 7.166,7.361 10.571,11.066 0.686,-0.5 1.286,-2.193 1.817,-4.872 10.457001,10.145 25.234001,35.7 3.798,45.832 -18.243,-15.046 -40.031,-25.983 -64.176,-34.187 l 0.007,-0.004 m 164.678001,0 c -31.032,16.003 -49.075,28.943 -58.959,39.969 5.062,20.289 31.469,21.215 41.125,20.646 -1.977,-0.92 -3.627,-2.023 -4.211,-3.716 2.423,-1.722 11.014,-0.182 17.011,-3.551 -2.304,-0.478 -3.381,-0.943 -4.459,-2.643 5.667,-1.807 11.771,-3.365 15.36,-6.359 -1.937,0.024 -3.746,0.434 -6.276,-1.321 5.076,-2.735 10.492,-4.903 14.7,-9.084 -2.625,-0.064 -5.454,-0.026 -6.276,-0.991 4.645,-2.878 8.565,-6.078 11.809,-9.579 -3.673,0.443 -5.223,0.062 -6.111,-0.578 3.511,-3.597 7.956,-6.634 10.075,-11.066 -2.727,0.94 -5.222,1.3 -7.02,-0.082 1.193,-2.692 6.306,-4.28 9.249,-10.571 -2.87,0.279 -5.915,0.626 -6.524,0 1.335,-5.43 3.621,-8.482 5.863,-11.644 -6.143,-0.091 -15.451,0.024 -15.03,-0.495 l 3.799,-3.882 c -6.001,-1.615 -12.141,0.26 -16.599,1.652 -2.001,-1.579 0.035,-3.576 2.477,-5.615 -5.099,0.68 -9.708,1.853 -13.873,3.468 -2.226,-2.009 1.445,-4.019 3.221,-6.028 -7.879,1.494 -11.217,3.595 -14.535,5.698 -2.407,-2.307 -0.137,-4.268 1.487,-6.276 -5.941,2.2 -9.001,5.041 -12.222,7.845 -1.093,-1.474 -2.775,-2.555 -0.744,-6.111 -4.217,2.431 -7.394,5.296 -9.744,8.506 -2.61,-1.662 -1.555,-3.935 -1.569,-6.029 -4.384,3.566 -7.166,7.36 -10.571,11.066 -0.686,-0.5 -1.286,-2.193 -1.817,-4.873 -10.457,10.146 -25.234,35.701 -3.798,45.833 18.233,-15.05 40.02,-25.985 64.166,-34.189 l -0.004,0"
     id="path6"
     style="fill:#ffffff"
     inkscape:connector-curvature="0" />
  <path
     d="m 155.58554,228.647 c 0.108,18.933 -16.449,34.362 -36.98,34.461 -20.532001,0.1 -37.264001,-15.167 -37.372001,-34.1 a 21.72,21.72 0 0 1 0,-0.361 c -0.108,-18.932 16.448,-34.361 36.980001,-34.461 20.532,-0.1 37.263,15.167 37.372,34.1 l 0,0.361 M 96.898539,130.718 c 15.404001,10.093 18.181001,32.969 6.202001,51.095 -11.979001,18.127 -34.177001,24.641 -49.581001,14.549 -15.404,-10.093 -18.18,-32.969 -6.202,-51.095 11.979,-18.127 34.177,-24.641 49.581,-14.549 m 41.576001,-1.827 c -15.403,10.092 -18.18,32.969 -6.202,51.095 11.979,18.127 34.177,24.641 49.581,14.548 15.404,-10.092 18.181,-32.968 6.202,-51.095 -11.978,-18.126 -34.176,-24.64 -49.581,-14.548 M 19.910539,147.218 c 16.631,-4.458 5.615,68.803 -7.917,62.792 -14.8849996,-11.972 -19.6789996,-47.033 7.917,-62.792 m 192.195001,-0.913 c -16.633,-4.457 -5.615,68.807 7.917,62.796 14.885,-11.973 19.679,-47.038 -7.917,-62.796 m -56.507,-54.557 c 28.701,-4.846 52.583,12.206 51.619,43.328 -0.944,11.932 -62.193,-41.551 -51.619,-43.328 M 76.298539,90.835 c -28.703,-4.847 -52.583,12.209 -51.619,43.329 0.944,11.931 62.194,-41.552 51.619,-43.329 m 41.228001,-7.258 c -17.13,-0.446 -33.570001,12.713 -33.610001,20.346 -0.047,9.274 13.544,18.77 33.727001,19.011 20.61,0.147 33.762,-7.601 33.828,-17.172 0.076,-10.844 -18.745,-22.353 -33.945,-22.186 l 0,0.001 m 1.046,190.18 c 14.935,-0.652 34.975,4.81 35.015,12.057 0.248,7.036 -18.175,22.934 -36.005,22.627 -18.466001,0.797 -36.573001,-15.126 -36.336001,-20.645 -0.277,-8.092 22.484001,-14.41 37.326001,-14.039 M 63.408539,230.812 c 10.633,12.81 15.481,35.316 6.607,41.951 -8.395,5.065 -28.782,2.979 -43.272,-17.838 -9.773,-17.468 -8.514,-35.243 -1.652,-40.465 10.261,-6.25 26.115,2.193 38.318,16.352 l -0.001,0 m 108.200001,-4.061 c -11.505,13.475 -17.911,38.053 -9.519,45.969 8.025,6.15 29.567,5.29 45.479,-16.789 11.554,-14.829 7.683,-39.594 1.083,-46.17 -9.804,-7.583 -23.879,2.122 -37.043,16.986 l 0,0.004"
     id="path8"
     style="fill:#ffffff"
     inkscape:connector-curvature="0" />
</svg>
