<?xml version="1.0" encoding="UTF-8" standalone="no"?>
<svg
   xmlns:dc="http://purl.org/dc/elements/1.1/"
   xmlns:cc="http://creativecommons.org/ns#"
   xmlns:rdf="http://www.w3.org/1999/02/22-rdf-syntax-ns#"
   xmlns:svg="http://www.w3.org/2000/svg"
   xmlns="http://www.w3.org/2000/svg"
   xmlns:sodipodi="http://sodipodi.sourceforge.net/DTD/sodipodi-0.dtd"
   xmlns:inkscape="http://www.inkscape.org/namespaces/inkscape"
   version="1.1"
   x="0px"
   y="0px"
   viewBox="0 0 61.137539 61.025002"
   enable-background="new 0 0 100 100"
   xml:space="preserve"
   id="svg2"
   inkscape:version="0.91 r13725"
   sodipodi:docname="sensor.svg"
   width="61.137539"
   height="61.025002"><metadata
     id="metadata24"><rdf:RDF><cc:Work
         rdf:about=""><dc:format>image/svg+xml</dc:format><dc:type
           rdf:resource="http://purl.org/dc/dcmitype/StillImage" /><dc:title></dc:title></cc:Work></rdf:RDF></metadata><defs
     id="defs22" /><sodipodi:namedview
     pagecolor="#ffffff"
     bordercolor="#666666"
     borderopacity="1"
     objecttolerance="10"
     gridtolerance="10"
     guidetolerance="10"
     inkscape:pageopacity="0"
     inkscape:pageshadow="2"
     inkscape:window-width="672"
     inkscape:window-height="480"
     id="namedview20"
     showgrid="false"
     fit-margin-top="8"
     fit-margin-left="0"
     fit-margin-right="0"
     fit-margin-bottom="8"
     inkscape:zoom="1.888"
     inkscape:cx="32.125"
     inkscape:cy="17.999994"
     inkscape:window-x="2554"
     inkscape:window-y="175"
     inkscape:window-maximized="0"
     inkscape:current-layer="svg2" /><g
     id="g4"
     style="fill:#ffffff"
     transform="translate(-17.875,-19.475)"><circle
       cx="48.5"
       cy="50"
       r="7.6999998"
       id="circle6"
       style="fill:#ffffff" /><path
       d="m 37.8,35.4 c -1.1,-1.1 -2.8,-1.1 -3.9,0 -8,8 -8,21.1 0,29.2 0.5,0.5 1.2,0.8 1.9,0.8 0.7,0 1.4,-0.3 1.9,-0.8 1.1,-1.1 1.1,-2.8 0,-3.9 -5.9,-5.9 -5.9,-15.5 0,-21.4 1.1,-1.1 1.1,-2.8 0.1,-3.9 z"
       id="path8"
       style="fill:#ffffff"
       inkscape:connector-curvature="0" /><path
       d="m 63.1,35.4 c -1.1,-1.1 -2.8,-1.1 -3.9,0 -1.1,1.1 -1.1,2.8 0,3.9 5.9,5.9 5.9,15.5 0,21.4 -1.1,1.1 -1.1,2.8 0,3.9 0.5,0.5 1.2,0.8 1.9,0.8 0.7,0 1.4,-0.3 1.9,-0.8 8.1,-8.1 8.1,-21.1 0.1,-29.2 z"
       id="path10"
       style="fill:#ffffff"
       inkscape:connector-curvature="0" /><path
       d="m 66.2,28.4 c -1.1,1.1 -1.1,2.8 0,3.9 9.8,9.7 9.8,25.7 0,35.5 -1.1,1.1 -1.1,2.8 0,3.9 0.5,0.5 1.2,0.8 1.9,0.8 0.7,0 1.4,-0.3 1.9,-0.8 12,-12 12,-31.4 0.1,-43.3 -1.1,-1.1 -2.8,-1.1 -3.9,0 z"
       id="path12"
       style="fill:#ffffff"
       inkscape:connector-curvature="0" /><path
       d="m 30.7,32.2 c 1.1,-1.1 1.1,-2.8 0,-3.9 -1.1,-1.1 -2.8,-1.1 -3.9,0 -11.9,11.9 -11.9,31.3 0,43.3 0.5,0.5 1.2,0.8 1.9,0.8 0.7,0 1.4,-0.3 1.9,-0.8 1.1,-1.1 1.1,-2.8 0,-3.9 C 20.9,58 20.9,42 30.7,32.2 Z"
       id="path14"
       style="fill:#ffffff"
       inkscape:connector-curvature="0" /></g></svg>